<svg width="66" height="57" viewBox="0 0 66 57" fill="none" xmlns="http://www.w3.org/2000/svg">
<path d="M41.7053 37.7142C43.3037 37.7142 44.8367 38.3492 45.9669 39.4794C47.0972 40.6097 47.7321 42.1426 47.7321 43.741V47.7642L47.7107 48.0535C46.8803 53.7508 41.7643 56.4883 33.1794 56.4883C24.6268 56.4883 19.4277 53.783 18.3053 48.1526L18.2678 47.7589V43.741C18.2678 42.1426 18.9028 40.6097 20.033 39.4794C21.1633 38.3492 22.6962 37.7142 24.2946 37.7142H41.7053ZM41.7053 41.7321H24.2946C23.7618 41.7321 23.2508 41.9437 22.8741 42.3205C22.4973 42.6972 22.2857 43.2082 22.2857 43.741V47.5446C23.0357 50.7589 26.4375 52.4705 33.1794 52.4705C39.9187 52.4705 43.1705 50.7803 43.7143 47.6062V43.741C43.7143 43.2082 43.5026 42.6972 43.1259 42.3205C42.7491 41.9437 42.2381 41.7321 41.7053 41.7321ZM44.3678 21.6401L59.1161 21.6428C60.7145 21.6428 62.2474 22.2778 63.3776 23.408C64.5079 24.5383 65.1428 26.0712 65.1428 27.6696V31.6928L65.1214 31.9821C64.2911 37.6794 59.175 40.4169 50.5902 40.4169L49.7464 40.4089C48.9555 38.5022 47.5137 36.938 45.6777 35.9946C47.0571 36.2625 48.691 36.3991 50.5902 36.3991C57.3294 36.3991 60.5812 34.7089 61.125 31.5348V27.6696C61.125 27.1368 60.9133 26.6258 60.5366 26.2491C60.1598 25.8723 59.6489 25.6607 59.1161 25.6607H45.0536C45.0536 24.2517 44.8125 22.8964 44.3678 21.6401ZM6.8839 21.6428L21.6321 21.6401C21.2539 22.7102 21.0293 23.8284 20.9652 24.9616L20.9464 25.6607H6.8839C6.3511 25.6607 5.84012 25.8723 5.46338 26.2491C5.08663 26.6258 4.87497 27.1368 4.87497 27.6696V31.4732C5.62497 34.6875 9.02676 36.3991 15.7687 36.3991C17.4348 36.3991 18.8866 36.2946 20.1402 36.091C18.3869 37.0437 17.0132 38.5687 16.2482 40.4116L15.766 40.4169C7.21605 40.4169 2.01694 37.7116 0.894617 32.0812L0.857117 31.6875V27.6696C0.857117 26.0712 1.49208 24.5383 2.62232 23.408C3.75256 22.2778 5.2855 21.6428 6.8839 21.6428ZM33 16.2857C35.4864 16.2857 37.871 17.2734 39.6291 19.0315C41.3873 20.7897 42.375 23.1743 42.375 25.6607C42.375 28.1471 41.3873 30.5316 39.6291 32.2898C37.871 34.0479 35.4864 35.0357 33 35.0357C30.5136 35.0357 28.129 34.0479 26.3709 32.2898C24.6127 30.5316 23.625 28.1471 23.625 25.6607C23.625 23.1743 24.6127 20.7897 26.3709 19.0315C28.129 17.2734 30.5136 16.2857 33 16.2857ZM33 20.3035C31.5792 20.3035 30.2166 20.8679 29.2119 21.8726C28.2072 22.8773 27.6428 24.2399 27.6428 25.6607C27.6428 27.0815 28.2072 28.4441 29.2119 29.4487C30.2166 30.4534 31.5792 31.0178 33 31.0178C34.4208 31.0178 35.7834 30.4534 36.788 29.4487C37.7927 28.4441 38.3571 27.0815 38.3571 25.6607C38.3571 24.2399 37.7927 22.8773 36.788 21.8726C35.7834 20.8679 34.4208 20.3035 33 20.3035ZM50.4107 0.214233C52.8971 0.214233 55.2817 1.20195 57.0398 2.96011C58.798 4.71826 59.7857 7.10283 59.7857 9.58923C59.7857 12.0756 58.798 14.4602 57.0398 16.2184C55.2817 17.9765 52.8971 18.9642 50.4107 18.9642C47.9243 18.9642 45.5397 17.9765 43.7816 16.2184C42.0234 14.4602 41.0357 12.0756 41.0357 9.58923C41.0357 7.10283 42.0234 4.71826 43.7816 2.96011C45.5397 1.20195 47.9243 0.214233 50.4107 0.214233ZM15.5893 0.214233C18.0757 0.214233 20.4602 1.20195 22.2184 2.96011C23.9765 4.71826 24.9643 7.10283 24.9643 9.58923C24.9643 12.0756 23.9765 14.4602 22.2184 16.2184C20.4602 17.9765 18.0757 18.9642 15.5893 18.9642C13.1029 18.9642 10.7183 17.9765 8.96013 16.2184C7.20198 14.4602 6.21426 12.0756 6.21426 9.58923C6.21426 7.10283 7.20198 4.71826 8.96013 2.96011C10.7183 1.20195 13.1029 0.214233 15.5893 0.214233ZM50.4107 4.23209C48.9899 4.23209 47.6273 4.7965 46.6226 5.80116C45.618 6.80582 45.0536 8.16843 45.0536 9.58923C45.0536 11.01 45.618 12.3726 46.6226 13.3773C47.6273 14.382 48.9899 14.9464 50.4107 14.9464C51.8315 14.9464 53.1941 14.382 54.1988 13.3773C55.2034 12.3726 55.7678 11.01 55.7678 9.58923C55.7678 8.16843 55.2034 6.80582 54.1988 5.80116C53.1941 4.7965 51.8315 4.23209 50.4107 4.23209ZM15.5893 4.23209C14.1685 4.23209 12.8058 4.7965 11.8012 5.80116C10.7965 6.80582 10.2321 8.16843 10.2321 9.58923C10.2321 11.01 10.7965 12.3726 11.8012 13.3773C12.8058 14.382 14.1685 14.9464 15.5893 14.9464C17.0101 14.9464 18.3727 14.382 19.3773 13.3773C20.382 12.3726 20.9464 11.01 20.9464 9.58923C20.9464 8.16843 20.382 6.80582 19.3773 5.80116C18.3727 4.7965 17.0101 4.23209 15.5893 4.23209Z" fill="white"/>
</svg>
