<svg width="60" height="56" viewBox="0 0 60 56" fill="none" xmlns="http://www.w3.org/2000/svg">
<path d="M59.2383 5.5293C59.0341 5.35835 58.7914 5.23968 58.531 5.18353C58.2707 5.12739 58.0006 5.13545 57.7441 5.20703L39.6094 9.71875L21.4453 0.636718H21.416L21.2402 0.548828H21.0352C21.0352 0.519531 21.0059 0.519531 20.9766 0.519531H20.2441L1.49414 5.20703C1.10932 5.29395 0.765811 5.50989 0.520662 5.81899C0.275513 6.12809 0.143478 6.51175 0.146485 6.90625V49.0938C0.14962 49.3589 0.211712 49.62 0.328258 49.8582C0.444804 50.0963 0.612884 50.3055 0.820313 50.4707C1.12646 50.7197 1.50971 50.8543 1.9043 50.8516L2.34375 50.793L20.4492 46.2812L38.6133 55.3633L38.8184 55.4512H38.877L39.082 55.5098H39.8438L58.5938 50.8223C58.9731 50.7296 59.31 50.5112 59.5494 50.2027C59.7888 49.8941 59.9166 49.5136 59.9121 49.1231V6.90625C59.9155 6.63999 59.8563 6.37665 59.7393 6.13747C59.6223 5.89829 59.4506 5.68996 59.2383 5.5293ZM3.66211 8.2832L18.8965 4.47461V43.0293L3.66211 46.8379V8.2832ZM37.6465 50.9395L22.4121 43.3223V5.06055L37.6465 12.6777V50.9395ZM56.3965 47.7168L41.1621 51.5254V12.9707L56.3965 9.16211V47.7168Z" fill="white"/>
</svg>
