<svg width="60" height="60" viewBox="0 0 60 60" fill="none" xmlns="http://www.w3.org/2000/svg">
<path d="M30.0293 0.117188C24.1191 0.117187 18.3415 1.86978 13.4273 5.15335C8.51311 8.43691 4.68295 13.104 2.42119 18.5643C0.159432 24.0247 -0.432347 30.0331 0.720688 35.8298C1.87372 41.6265 4.71978 46.9512 8.89897 51.1303C13.0782 55.3095 18.4028 58.1556 24.1995 59.3086C29.9962 60.4617 36.0046 59.8699 41.465 57.6081C46.9253 55.3464 51.5924 51.5162 54.876 46.602C58.1595 41.6878 59.9121 35.9103 59.9121 30C59.8966 22.0793 56.7433 14.4875 51.1425 8.88676C45.5418 3.286 37.95 0.132673 30.0293 0.117188ZM30.0293 56.3672C24.8144 56.3672 19.7165 54.8208 15.3805 51.9235C11.0444 49.0262 7.66488 44.9083 5.66921 40.0903C3.67354 35.2723 3.15138 29.9708 4.16876 24.856C5.18615 19.7413 7.69737 15.0431 11.3849 11.3556C15.0724 7.66807 19.7706 5.15683 24.8853 4.13945C30.0001 3.12207 35.3016 3.64423 40.1196 5.63989C44.9376 7.63556 49.0556 11.0151 51.9528 15.3512C54.8501 19.6872 56.3965 24.7851 56.3965 30C56.3887 36.9906 53.6083 43.6927 48.6652 48.6359C43.722 53.579 37.0199 56.3594 30.0293 56.3672ZM42.5098 15.1758L24.3457 23.4375C23.9376 23.6123 23.6124 23.9376 23.4375 24.3457L15.9961 41.748C15.8555 42.0687 15.8138 42.4241 15.8764 42.7686C15.9391 43.1131 16.1032 43.431 16.3477 43.6816C16.6893 44.0013 17.1396 44.1793 17.6074 44.1797C17.8409 44.1901 18.0732 44.1396 18.2813 44.0332L35.6836 36.5918C36.0918 36.417 36.417 36.0917 36.5918 35.6836L44.8242 17.4902C44.9657 17.1664 45.0062 16.8074 44.9406 16.4602C44.875 16.113 44.7062 15.7936 44.4563 15.5437C44.2065 15.2938 43.8871 15.125 43.5398 15.0594C43.1926 14.9938 42.8336 15.0343 42.5098 15.1758ZM33.6914 33.6328L20.9473 39.082L26.3965 26.3379L39.6973 20.3027L33.6914 33.6328Z" fill="white"/>
</svg>
